<svg width="38" height="38" viewBox="0 0 38 38" fill="none" xmlns="http://www.w3.org/2000/svg">
<path d="M22.2503 12.6026L22.481 11.3741L22.4314 11.3648L22.3811 11.3595L22.2503 12.6026ZM25.6239 15.7527L26.8558 15.5409L26.8506 15.5106L26.8439 15.4805L25.6239 15.7527ZM14.9753 12.6482L14.8444 11.4051L14.7942 11.4104L14.7446 11.4197L14.9753 12.6482ZM11.6017 15.7982L10.3817 15.5261L10.375 15.5561L10.3697 15.5865L11.6017 15.7982ZM18.5898 13.8932L17.7128 14.7839C18.2016 15.2651 18.9869 15.2626 19.4725 14.7782L18.5898 13.8932ZM21.4048 20.6625C20.8963 21.1294 20.8626 21.9201 21.3296 22.4286C21.7965 22.9371 22.5873 22.9708 23.0957 22.5038L21.4048 20.6625ZM12.2786 3.24997H24.947V0.749969H12.2786V3.24997ZM28.9756 7.2785V30.504H31.4756V7.2785H28.9756ZM24.947 34.5325H12.2786V37.0325H24.947V34.5325ZM8.25003 30.504V7.2785H5.75003V30.504H8.25003ZM12.2786 34.5325C10.0537 34.5325 8.25003 32.7289 8.25003 30.504H5.75003C5.75003 34.1096 8.67295 37.0325 12.2786 37.0325V34.5325ZM28.9756 30.504C28.9756 32.7289 27.1719 34.5325 24.947 34.5325V37.0325C28.5526 37.0325 31.4756 34.1096 31.4756 30.504H28.9756ZM24.947 3.24997C27.1719 3.24997 28.9756 5.0536 28.9756 7.2785H31.4756C31.4756 3.67289 28.5526 0.749969 24.947 0.749969V3.24997ZM12.2786 0.749969C8.67295 0.749969 5.75003 3.67289 5.75003 7.2785H8.25003C8.25003 5.0536 10.0537 3.24997 12.2786 3.24997V0.749969ZM22.0196 13.8312C23.073 14.029 23.5188 14.2772 23.7609 14.5153C24.002 14.7524 24.2065 15.14 24.4039 16.0248L26.8439 15.4805C26.616 14.4585 26.28 13.4864 25.5138 12.7328C24.7485 11.9802 23.7202 11.6068 22.481 11.3741L22.0196 13.8312ZM14.7446 11.4197C13.5054 11.6524 12.477 12.0258 11.7117 12.7784C10.9455 13.5319 10.6096 14.5041 10.3817 15.5261L12.8217 16.0703C13.019 15.1856 13.2236 14.798 13.4647 14.5608C13.7068 14.3228 14.1526 14.0746 15.206 13.8767L14.7446 11.4197ZM19.4668 13.0024C18.8138 12.3596 18.1506 11.8673 17.3444 11.5946C16.5423 11.3233 15.7247 11.3124 14.8444 11.4051L15.1062 13.8913C15.8184 13.8163 16.2269 13.8558 16.5434 13.9628C16.8557 14.0685 17.2036 14.2825 17.7128 14.7839L19.4668 13.0024ZM19.4725 14.7782C19.9974 14.2547 20.3524 14.0316 20.6693 13.9217C20.9879 13.8112 21.3981 13.7698 22.1194 13.8458L22.3811 11.3595C21.489 11.2656 20.6619 11.2781 19.8501 11.5597C19.0365 11.8419 18.368 12.3489 17.7071 13.0081L19.4725 14.7782ZM24.392 15.9644C24.455 16.331 24.3497 16.9452 23.8296 17.8256C23.3235 18.6823 22.5041 19.6529 21.4048 20.6625L23.0957 22.5038C24.3092 21.3895 25.3119 20.2315 25.982 19.0972C26.6381 17.9866 27.0632 16.7475 26.8558 15.5409L24.392 15.9644ZM10.3697 15.5865C10.1104 17.0956 10.8766 18.6877 11.9074 20.073C12.9836 21.5193 14.5557 23.0191 16.416 24.4278C20.1349 27.2438 25.1906 29.8341 30.2324 30.9392L30.7677 28.4972C26.135 27.4817 21.4051 25.0697 17.9252 22.4347C16.1861 21.1178 14.8055 19.7799 13.913 18.5806C12.9751 17.3201 12.7565 16.4585 12.8336 16.0099L10.3697 15.5865Z"/>
</svg>
