<svg width="38" height="38" viewBox="0 0 38 38" fill="none" xmlns="http://www.w3.org/2000/svg">
<path fill-rule="evenodd" clip-rule="evenodd" d="M6 6.68182C6 3.54384 8.54384 1 11.6818 1L25.3182 1C28.4562 1 31 3.54384 31 6.68182L31 29.4854C26.4475 28.3875 21.847 26.0812 18.2935 23.5097C16.2452 22.0275 14.5954 20.4933 13.5178 19.1059C12.4035 17.6712 12.0986 16.6513 12.1811 16.0895C12.3924 15.1562 12.6155 14.7241 12.8916 14.4525C13.168 14.1807 13.6596 13.9126 14.7656 13.6998C15.5083 13.6254 15.9517 13.6676 16.3031 13.7864C16.6581 13.9065 17.0446 14.1475 17.5983 14.6926C18.0871 15.1739 18.8723 15.1713 19.358 14.6869C19.9281 14.1183 20.3223 13.8672 20.6823 13.7424C21.0363 13.6196 21.482 13.5754 22.2345 13.6507C23.3404 13.8635 23.832 14.1316 24.1084 14.4034C24.3846 14.6751 24.6077 15.1073 24.819 16.0409C24.883 16.4692 24.7514 17.1459 24.1976 18.0833C23.6465 19.0161 22.7576 20.068 21.5699 21.1587C21.0614 21.6256 21.0278 22.4164 21.4947 22.9249C21.9616 23.4334 22.7524 23.467 23.2609 23.0001C24.5627 21.8046 25.635 20.5653 26.35 19.3549C27.051 18.1683 27.4964 16.8584 27.2787 15.5917L27.2735 15.5614L27.2668 15.5313C27.0226 14.4364 26.666 13.4124 25.8613 12.621C25.0576 11.8305 23.9729 11.4334 22.6461 11.1842L22.5965 11.1749L22.5463 11.1696C21.5925 11.0692 20.7182 11.0838 19.8631 11.3804C19.3557 11.5564 18.9007 11.8157 18.4672 12.1443C18.044 11.8319 17.5991 11.5856 17.1041 11.4182C16.2592 11.1324 15.3948 11.1196 14.4537 11.2187L14.4035 11.224L14.3539 11.2333C13.0271 11.4824 11.9424 11.8796 11.1387 12.67C10.334 13.4614 9.97742 14.4855 9.73321 15.5804L9.7265 15.6104L9.72128 15.6408C9.43598 17.3009 10.3314 19.079 11.5434 20.6395C12.8091 22.269 14.6535 23.9616 16.8278 25.5351C20.7313 28.3598 25.8615 30.9172 30.9884 32.0483C30.7995 35.0155 28.333 37.3636 25.3182 37.3636H11.6818C8.54384 37.3636 6 34.8198 6 31.6818L6 6.68182Z" fill="#383838"/>
</svg>
