<svg width="38" height="38" viewBox="0 0 38 38" fill="none" xmlns="http://www.w3.org/2000/svg">
<path d="M27.6154 3.99911H10.3846C7.41077 3.99911 5 6.38693 5 9.33244L5.02659 33.3325C5.02659 31.8597 6.23197 30.6658 7.7189 30.6658H30.3077H33V9.33244C33 6.38693 30.5892 3.99911 27.6154 3.99911Z" fill="#383838"/>
<path d="M5 9.33244L3.75 9.33244L3.75 9.33383L5 9.33244ZM7.7189 35.9991L7.7189 37.2491L7.7189 37.2491L7.7189 35.9991ZM33 30.6658V31.9158C33.6904 31.9158 34.25 31.3561 34.25 30.6658H33ZM30.3077 35.9991L30.3077 37.2491L30.3077 37.2491L30.3077 35.9991ZM31.9231 37.2491C32.6134 37.2491 33.1731 36.6894 33.1731 35.9991C33.1731 35.3087 32.6134 34.7491 31.9231 34.7491L31.9231 37.2491ZM10.3846 5.24911H27.6154V2.74911H10.3846V5.24911ZM6.27659 33.3311L6.25 9.33106L3.75 9.33383L3.77659 33.3338L6.27659 33.3311ZM27.6154 5.24911C29.9102 5.24911 31.75 7.08854 31.75 9.33244H34.25C34.25 5.68532 31.2683 2.74911 27.6154 2.74911V5.24911ZM10.3846 2.74911C6.73172 2.74911 3.75 5.68532 3.75 9.33244H6.25C6.25 7.08854 8.08983 5.24911 10.3846 5.24911V2.74911ZM30.3077 29.4158H7.7189V31.9158H30.3077V29.4158ZM3.77659 33.3325C3.77659 35.5068 5.55293 37.2491 7.7189 37.2491V34.7491C6.91102 34.7491 6.27659 34.1036 6.27659 33.3325H3.77659ZM7.7189 29.4158C5.55293 29.4158 3.77659 31.1581 3.77659 33.3325H6.27659C6.27659 32.5613 6.91102 31.9158 7.7189 31.9158V29.4158ZM31.75 9.33244V30.6658H34.25V9.33244H31.75ZM30.3077 31.9158H33V29.4158H30.3077V31.9158ZM7.7189 37.2491L30.3077 37.2491L30.3077 34.7491L7.71889 34.7491L7.7189 37.2491ZM30.3077 37.2491L31.9231 37.2491L31.9231 34.7491L30.3077 34.7491L30.3077 37.2491ZM29.0577 30.6658V35.9991H31.5577V30.6658H29.0577Z" fill="#383838"/>
</svg>
