<svg width="38" height="38" viewBox="0 0 38 38" fill="none" xmlns="http://www.w3.org/2000/svg">
<path d="M5 9.33247H3.75L3.75 9.33386L5 9.33247ZM7.7189 35.9991V37.2491L7.7189 37.2491L7.7189 35.9991ZM31.9231 37.2491C32.6134 37.2491 33.1731 36.6895 33.1731 35.9991C33.1731 35.3088 32.6134 34.7491 31.9231 34.7491L31.9231 37.2491ZM33 30.6658V31.9158C33.6904 31.9158 34.25 31.3562 34.25 30.6658H33ZM10.3846 5.24915H27.6154V2.74915H10.3846V5.24915ZM6.27659 33.3311L6.25 9.33109L3.75 9.33386L3.77659 33.3339L6.27659 33.3311ZM27.6154 5.24915C29.9102 5.24915 31.75 7.08857 31.75 9.33247H34.25C34.25 5.68535 31.2683 2.74915 27.6154 2.74915V5.24915ZM10.3846 2.74915C6.73172 2.74915 3.75 5.68535 3.75 9.33247H6.25C6.25 7.08857 8.08983 5.24915 10.3846 5.24915V2.74915ZM30.3077 29.4158H7.7189V31.9158H30.3077V29.4158ZM3.77659 33.3325C3.77659 35.5068 5.55292 37.2491 7.7189 37.2491V34.7491C6.91103 34.7491 6.27659 34.1036 6.27659 33.3325H3.77659ZM7.7189 29.4158C5.55293 29.4158 3.77659 31.1581 3.77659 33.3325H6.27659C6.27659 32.5613 6.91102 31.9158 7.7189 31.9158V29.4158ZM31.75 9.33247V30.6658H34.25V9.33247H31.75ZM30.3077 31.9158H33V29.4158H30.3077V31.9158ZM7.7189 37.2491L30.3077 37.2491L30.3077 34.7491L7.71889 34.7491L7.7189 37.2491ZM30.3077 37.2491H31.9231L31.9231 34.7491L30.3077 34.7491L30.3077 37.2491ZM29.0577 30.6658V35.9991H31.5577V30.6658H29.0577Z"/>
</svg>
